<svg width="21" height="20" viewBox="0 0 21 20" fill="none" xmlns="http://www.w3.org/2000/svg">
<g clip-path="url(#clip0_75_56)">
<mask id="mask0_75_56" style="mask-type:luminance" maskUnits="userSpaceOnUse" x="0" y="0" width="21" height="20">
<path d="M20.1307 8.18182H10.8125V12.0455H16.1761C15.6761 14.5 13.5852 15.9091 10.8125 15.9091C7.53978 15.9091 4.90341 13.2727 4.90341 10C4.90341 6.72728 7.53978 4.09091 10.8125 4.09091C12.2216 4.09091 13.4943 4.59091 14.4943 5.40909L17.4034 2.5C15.6307 0.954546 13.358 0 10.8125 0C5.26705 0 0.8125 4.45455 0.8125 10C0.8125 15.5455 5.26705 20 10.8125 20C15.8125 20 20.358 16.3636 20.358 10C20.358 9.40909 20.2671 8.77273 20.1307 8.18182Z" fill="white"/>
</mask>
<g mask="url(#mask0_75_56)">
<path d="M-0.0965881 15.9091V4.09088L7.63069 9.99997L-0.0965881 15.9091Z" fill="#FBBC05"/>
</g>
<mask id="mask1_75_56" style="mask-type:luminance" maskUnits="userSpaceOnUse" x="0" y="0" width="21" height="20">
<path d="M20.1307 8.18182H10.8125V12.0455H16.1761C15.6761 14.5 13.5852 15.9091 10.8125 15.9091C7.53978 15.9091 4.90341 13.2727 4.90341 10C4.90341 6.72728 7.53978 4.09091 10.8125 4.09091C12.2216 4.09091 13.4943 4.59091 14.4943 5.40909L17.4034 2.5C15.6307 0.954546 13.358 0 10.8125 0C5.26705 0 0.8125 4.45455 0.8125 10C0.8125 15.5455 5.26705 20 10.8125 20C15.8125 20 20.358 16.3636 20.358 10C20.358 9.40909 20.2671 8.77273 20.1307 8.18182Z" fill="white"/>
</mask>
<g mask="url(#mask1_75_56)">
<path d="M-0.0965881 4.09088L7.63069 9.99998L10.8125 7.22725L21.7216 5.45452V-0.909119H-0.0965881V4.09088Z" fill="#EA4335"/>
</g>
<mask id="mask2_75_56" style="mask-type:luminance" maskUnits="userSpaceOnUse" x="0" y="0" width="21" height="20">
<path d="M20.1307 8.18182H10.8125V12.0455H16.1761C15.6761 14.5 13.5852 15.9091 10.8125 15.9091C7.53978 15.9091 4.90341 13.2727 4.90341 10C4.90341 6.72728 7.53978 4.09091 10.8125 4.09091C12.2216 4.09091 13.4943 4.59091 14.4943 5.40909L17.4034 2.5C15.6307 0.954546 13.358 0 10.8125 0C5.26705 0 0.8125 4.45455 0.8125 10C0.8125 15.5455 5.26705 20 10.8125 20C15.8125 20 20.358 16.3636 20.358 10C20.358 9.40909 20.2671 8.77273 20.1307 8.18182Z" fill="white"/>
</mask>
<g mask="url(#mask2_75_56)">
<path d="M-0.0965881 15.9091L13.5398 5.45452L17.1307 5.90907L21.7216 -0.909119V20.9091H-0.0965881V15.9091Z" fill="#34A853"/>
</g>
<mask id="mask3_75_56" style="mask-type:luminance" maskUnits="userSpaceOnUse" x="0" y="0" width="21" height="20">
<path d="M20.1307 8.18182H10.8125V12.0455H16.1761C15.6761 14.5 13.5852 15.9091 10.8125 15.9091C7.53978 15.9091 4.90341 13.2727 4.90341 10C4.90341 6.72728 7.53978 4.09091 10.8125 4.09091C12.2216 4.09091 13.4943 4.59091 14.4943 5.40909L17.4034 2.5C15.6307 0.954546 13.358 0 10.8125 0C5.26705 0 0.8125 4.45455 0.8125 10C0.8125 15.5455 5.26705 20 10.8125 20C15.8125 20 20.358 16.3636 20.358 10C20.358 9.40909 20.2671 8.77273 20.1307 8.18182Z" fill="white"/>
</mask>
<g mask="url(#mask3_75_56)">
<path d="M21.7216 20.9091L7.63068 9.99997L5.8125 8.63634L21.7216 4.09088V20.9091Z" fill="#4285F4"/>
</g>
</g>
<defs>
<clipPath id="clip0_75_56">
<rect width="20" height="20" fill="white" transform="translate(0.5)"/>
</clipPath>
</defs>
</svg>
