<svg width="22" height="22" viewBox="0 0 22 22" fill="none" xmlns="http://www.w3.org/2000/svg">
<path d="M16.2377 0.0239258C19.4067 0.0239258 21.976 2.59314 21.976 5.76221V16.2378C21.976 19.4069 19.4067 21.9761 16.2377 21.9761H5.76208C2.59302 21.9761 0.0238037 19.4069 0.0238037 16.2378V5.76221C0.0238037 2.59314 2.59302 0.0239258 5.76208 0.0239258H16.2377ZM5.76208 1.02393C3.14531 1.02393 1.0238 3.14543 1.0238 5.76221V16.2378C1.0238 18.8546 3.14531 20.9761 5.76208 20.9761H16.2377C18.8544 20.9761 20.976 18.8546 20.976 16.2378V5.76221C20.976 3.14543 18.8544 1.02393 16.2377 1.02393H5.76208ZM8.88513 6.7915C9.76084 6.33711 10.7579 6.17023 11.7338 6.31494C12.729 6.46262 13.6502 6.92672 14.3617 7.63818C15.0733 8.34977 15.5373 9.27164 15.6849 10.2671C15.8295 11.2428 15.6627 12.2392 15.2084 13.1147C14.754 13.9904 14.0349 14.7005 13.1537 15.144C12.2725 15.5875 11.2741 15.7422 10.3002 15.5854C9.32614 15.4287 8.42649 14.9686 7.72888 14.271C7.03131 13.5734 6.57117 12.6737 6.41443 11.6997C6.25773 10.7258 6.41238 9.72735 6.85583 8.84619C7.29939 7.96495 8.00944 7.24589 8.88513 6.7915ZM11.5863 7.3042C10.8187 7.19044 10.0349 7.32183 9.34607 7.6792C8.65706 8.03671 8.0974 8.60204 7.74841 9.29541C7.39956 9.98861 7.27853 10.7743 7.40173 11.5405C7.52506 12.3069 7.88707 13.0151 8.43591 13.564C8.98479 14.1128 9.69298 14.4748 10.4594 14.5981C11.2256 14.7214 12.0112 14.6003 12.7045 14.2515C13.3977 13.9026 13.9632 13.3436 14.3207 12.6548C14.6782 11.9659 14.8095 11.1813 14.6957 10.4136C14.5795 9.63036 14.2145 8.9051 13.6547 8.34521C13.0948 7.78537 12.3695 7.42034 11.5863 7.3042ZM16.7719 4.73779C17.0478 4.73789 17.2716 4.9619 17.2719 5.23779C17.2719 5.51387 17.0479 5.73769 16.7719 5.73779H16.7621C16.4859 5.73779 16.2621 5.51394 16.2621 5.23779C16.2623 4.96184 16.4861 4.73779 16.7621 4.73779H16.7719Z" fill="white"/>
</svg>
